HIERARCHY
ROOT mixamorig:Hips
{
  OFFSET 0.000000 0.000000 0.000000
  CHANNELS 6 Xposition Yposition Zposition Xrotation Yrotation Zrotation
  JOINT mixamorig:Spine
  {
    OFFSET 1.277922 23.685776 -1.473739
    CHANNELS 3 Xrotation Yrotation Zrotation
    JOINT mixamorig:Spine2
    {
      OFFSET 1.277922 23.685776 -1.473739
      CHANNELS 3 Xrotation Yrotation Zrotation
      JOINT mixamorig:Neck
      {
        OFFSET 0.000000 4.227248 0.000000
        CHANNELS 3 Xrotation Yrotation Zrotation
        JOINT mixamorig:Head
        {
          OFFSET 0.000000 3.735021 0.000000
          CHANNELS 3 Xrotation Yrotation Zrotation
          End Site
          {
            OFFSET 0.000000 1.120506 0.000000
          }
        }
      }
      JOINT mixamorig:LeftShoulder
      {
        OFFSET 15.589172 3.940868 -1.613959
        CHANNELS 3 Xrotation Yrotation Zrotation
        JOINT mixamorig:LeftArm
        {
          OFFSET 10.000000 -2.000000 0.000000
          CHANNELS 3 Xrotation Yrotation Zrotation
          JOINT mixamorig:LeftForeArm
          {
            OFFSET 21.758426 0.000000 0.000000
            CHANNELS 3 Xrotation Yrotation Zrotation
            JOINT mixamorig:LeftHand
            {
              OFFSET 22.844967 0.000000 0.000000
              CHANNELS 3 Xrotation Yrotation Zrotation
              End Site
              {
                OFFSET 6.853490 0.000000 0.000000
              }
            }
          }
        }
      }
      JOINT mixamorig:RightShoulder
      {
        OFFSET -15.589172 3.940868 1.613959
        CHANNELS 3 Xrotation Yrotation Zrotation
        JOINT mixamorig:RightArm
        {
          OFFSET -10.000000 -2.000000 0.000000
          CHANNELS 3 Xrotation Yrotation Zrotation
          JOINT mixamorig:RightForeArm
          {
            OFFSET -28.500106 0.000000 0.000000
            CHANNELS 3 Xrotation Yrotation Zrotation
            JOINT mixamorig:RightHand
            {
              OFFSET -30.537220 0.000000 0.000000
              CHANNELS 3 Xrotation Yrotation Zrotation
              End Site
              {
                OFFSET -9.161166 0.000000 0.000000
              }
            }
          }
        }
      }
    }
  }
  JOINT mixamorig:LeftUpLeg
  {
    OFFSET 9.460444 -0.159481 1.370640
    CHANNELS 3 Xrotation Yrotation Zrotation
    JOINT mixamorig:LeftLeg
    {
      OFFSET 11.476000 -40.598035 -6.922701
      CHANNELS 3 Xrotation Yrotation Zrotation
      JOINT mixamorig:LeftFoot
      {
        OFFSET 10.790807 -36.194235 11.674022
        CHANNELS 3 Xrotation Yrotation Zrotation
        JOINT mixamorig:LeftToeBase
        {
          OFFSET -0.217554 -6.343681 -6.642804
          CHANNELS 3 Xrotation Yrotation Zrotation
          End Site
          {
            OFFSET -0.065266 -1.903104 -1.992841
          }
        }
      }
    }
  }
  JOINT mixamorig:RightUpLeg
  {
    OFFSET -9.460444 0.159481 -1.370640
    CHANNELS 3 Xrotation Yrotation Zrotation
    JOINT mixamorig:RightLeg
    {
      OFFSET -1.472079 -34.936613 11.400775
      CHANNELS 3 Xrotation Yrotation Zrotation
      JOINT mixamorig:RightFoot
      {
        OFFSET -9.570470 -38.467240 26.014859
        CHANNELS 3 Xrotation Yrotation Zrotation
        JOINT mixamorig:RightToeBase
        {
          OFFSET -7.756088 -3.724676 -6.009160
          CHANNELS 3 Xrotation Yrotation Zrotation
          End Site
          {
            OFFSET -2.326826 -1.117403 -1.802748
          }
        }
      }
    }
  }
}
MOTION
Frames: 7
Frame Time: 0.083333
0.094793 0.150699 0.173224 3.214648 -0.054989 3.466422 -0.001283 0.000672 0.009681 -2.932314 11.499395 -3.452451 -5.348309 -5.614381 5.732872 -5.806843 -5.084628 6.259621 0.000000 0.000000 0.000000 -22.758066 29.941788 -73.814839 153.702250 36.708803 170.930774 0.000000 0.000000 0.000000 0.000000 0.000000 0.000000 -32.484905 -29.090411 96.636660 -101.114038 -30.433701 154.737127 0.000000 0.000000 0.000000 -7.266984 -1.028001 -9.730709 -6.620253 -1.373010 1.637253 -4.525247 1.644382 -1.557461 0.000000 0.000000 0.000000 10.793933 -0.184896 1.151284 -10.724917 6.774468 4.681326 2.404111 -5.658751 0.265739 0.000000 0.000000 0.000000
0.090749 0.153379 0.182665 3.195421 -0.012942 4.626071 -0.002670 0.000739 0.009561 -2.806214 13.713361 -4.579197 -5.397461 -5.924066 5.601049 -5.864554 -5.404269 6.159741 0.000000 0.000000 0.000000 -19.821771 27.981575 -69.731551 146.125020 42.711635 166.124202 0.000000 0.000000 0.000000 0.000000 0.000000 0.000000 -33.070455 -30.063876 95.737235 -96.498365 -30.949753 152.193646 0.000000 0.000000 0.000000 -7.459602 -0.969290 -10.921605 -6.843614 -0.943018 2.900240 -5.561803 4.567626 -4.665234 0.000000 0.000000 0.000000 10.530066 -0.461194 -0.118748 -9.540879 6.714450 5.115772 2.187878 -4.705805 -0.002017 0.000000 0.000000 0.000000
0.086094 0.157046 0.196323 3.100220 0.052998 6.243299 -0.005833 0.000874 0.008988 -2.622812 16.888797 -6.110567 -5.541727 -6.247398 5.416781 -6.009748 -5.735678 6.020254 0.000000 0.000000 0.000000 -15.598733 24.364766 -64.408713 141.479372 52.370779 160.652737 0.000000 0.000000 0.000000 0.000000 0.000000 0.000000 -33.453728 -30.299298 95.962369 -91.007396 -30.897564 149.539722 0.000000 0.000000 0.000000 -6.772510 -0.475018 -12.798465 -7.583506 0.156784 6.079767 -6.352673 10.604040 -11.259999 0.000000 0.000000 0.000000 10.327436 -0.856575 -1.925286 -7.455698 6.411282 5.662626 1.151774 -2.664294 0.135084 0.000000 0.000000 0.000000
0.082358 0.157967 0.211366 3.041146 0.118027 7.889205 -0.010019 0.001079 0.008636 -2.520235 18.628850 -7.655360 -5.819273 -6.167913 5.353082 -6.269084 -5.639795 5.981651 0.000000 0.000000 0.000000 -11.554541 19.674350 -60.185318 127.585284 64.745168 137.903778 0.000000 0.000000 0.000000 0.000000 0.000000 0.000000 -33.554922 -30.175983 96.382163 -86.033686 -30.576063 147.331627 0.000000 0.000000 0.000000 -4.561095 0.751206 -15.129625 -11.612280 1.592186 11.499702 -8.501427 16.056645 -17.520418 0.000000 0.000000 0.000000 11.448709 -1.346092 -4.062493 -6.251359 6.633391 6.495474 -0.152099 -1.084360 0.858397 0.000000 0.000000 0.000000
0.078321 0.146132 0.216844 3.047537 0.169815 9.351990 -0.013916 0.001291 0.008666 -2.549493 18.137500 -9.062447 -5.749446 -5.587699 5.645913 -6.189144 -5.033073 6.213946 0.000000 0.000000 0.000000 -7.422471 13.380793 -57.346563 50.347916 72.141763 46.272478 0.000000 0.000000 0.000000 0.000000 0.000000 0.000000 -32.808734 -30.476771 94.455495 -90.805188 -31.383043 149.015004 0.000000 0.000000 0.000000 0.214626 3.162506 -16.878832 -22.516172 1.761388 16.428432 -12.257377 15.521210 -18.009290 0.000000 0.000000 0.000000 13.189299 -1.711422 -5.885062 -4.205227 6.681235 7.523400 -0.013448 -0.528846 0.350103 0.000000 0.000000 0.000000
0.076024 0.119256 0.221583 3.104873 0.218046 10.955246 -0.016215 0.001436 0.009005 -2.615235 17.027966 -10.643297 -5.352993 -5.168464 6.288506 -5.820791 -4.586370 6.781471 0.000000 0.000000 0.000000 -2.084382 3.828798 -55.631111 -81.264487 67.400242 -104.358286 0.000000 0.000000 0.000000 0.000000 0.000000 0.000000 -33.054013 -31.939518 92.119481 -96.662392 -32.364556 151.023724 0.000000 0.000000 0.000000 12.138556 8.881154 -17.323874 -44.495053 -2.028531 17.787358 -22.043416 15.072948 -21.058838 0.000000 0.000000 0.000000 15.557231 -2.046214 -7.845008 -2.047164 6.471035 8.303276 1.477488 -1.145298 -1.167237 0.000000 0.000000 0.000000
0.077542 0.091655 0.233724 3.314876 0.245090 12.747855 -0.009990 0.001179 0.010271 -2.673452 16.034803 -12.457973 -4.512965 -4.753505 7.048703 -5.012541 -4.189136 7.433475 0.000000 0.000000 0.000000 0.492577 -1.081705 -53.082302 -66.172179 55.545329 -101.886413 0.000000 0.000000 0.000000 0.000000 0.000000 0.000000 -35.054110 -34.440709 91.064226 -99.078441 -32.585802 151.995572 0.000000 0.000000 0.000000 31.009605 18.533378 -17.205285 -70.302491 -8.895517 16.221857 -29.087781 20.473869 -31.148681 0.000000 0.000000 0.000000 16.210637 -2.444329 -10.190297 -0.027429 6.099960 8.825393 3.859522 -2.460005 -3.382516 0.000000 0.000000 0.000000
